%TF.GenerationSoftware,KiCad,Pcbnew,8.0.1*%
%TF.CreationDate,2024-04-11T07:46:41+08:00*%
%TF.ProjectId,input-nodes,696e7075-742d-46e6-9f64-65732e6b6963,rev?*%
%TF.SameCoordinates,Original*%
%TF.FileFunction,Drillmap*%
%TF.FilePolarity,Positive*%
%FSLAX45Y45*%
G04 Gerber Fmt 4.5, Leading zero omitted, Abs format (unit mm)*
G04 Created by KiCad (PCBNEW 8.0.1) date 2024-04-11 07:46:41*
%MOMM*%
%LPD*%
G01*
G04 APERTURE LIST*
%ADD10C,0.100000*%
%ADD11C,0.200000*%
%ADD12C,0.120000*%
%ADD13C,0.350000*%
G04 APERTURE END LIST*
D10*
X9080000Y-7280000D02*
X13580000Y-7280000D01*
X13580000Y-12280000D01*
X9080000Y-12280000D01*
X9080000Y-7280000D01*
D11*
D12*
X9240000Y-7440000D02*
X9360000Y-7560000D01*
X9360000Y-7440000D02*
X9240000Y-7560000D01*
X9240000Y-11990000D02*
X9360000Y-12110000D01*
X9360000Y-11990000D02*
X9240000Y-12110000D01*
X13290000Y-7440000D02*
X13410000Y-7560000D01*
X13410000Y-7440000D02*
X13290000Y-7560000D01*
X13290000Y-11990000D02*
X13410000Y-12110000D01*
X13410000Y-11990000D02*
X13290000Y-12110000D01*
D13*
X13078000Y-8059000D02*
G75*
G02*
X12728000Y-8059000I-175000J0D01*
G01*
X12728000Y-8059000D02*
G75*
G02*
X13078000Y-8059000I175000J0D01*
G01*
D11*
X9335777Y-12596484D02*
X9335777Y-12396484D01*
X9335777Y-12396484D02*
X9383396Y-12396484D01*
X9383396Y-12396484D02*
X9411967Y-12406008D01*
X9411967Y-12406008D02*
X9431015Y-12425055D01*
X9431015Y-12425055D02*
X9440539Y-12444103D01*
X9440539Y-12444103D02*
X9450063Y-12482198D01*
X9450063Y-12482198D02*
X9450063Y-12510769D01*
X9450063Y-12510769D02*
X9440539Y-12548865D01*
X9440539Y-12548865D02*
X9431015Y-12567912D01*
X9431015Y-12567912D02*
X9411967Y-12586960D01*
X9411967Y-12586960D02*
X9383396Y-12596484D01*
X9383396Y-12596484D02*
X9335777Y-12596484D01*
X9535777Y-12596484D02*
X9535777Y-12463150D01*
X9535777Y-12501246D02*
X9545301Y-12482198D01*
X9545301Y-12482198D02*
X9554824Y-12472674D01*
X9554824Y-12472674D02*
X9573872Y-12463150D01*
X9573872Y-12463150D02*
X9592920Y-12463150D01*
X9659586Y-12596484D02*
X9659586Y-12463150D01*
X9659586Y-12396484D02*
X9650063Y-12406008D01*
X9650063Y-12406008D02*
X9659586Y-12415531D01*
X9659586Y-12415531D02*
X9669110Y-12406008D01*
X9669110Y-12406008D02*
X9659586Y-12396484D01*
X9659586Y-12396484D02*
X9659586Y-12415531D01*
X9783396Y-12596484D02*
X9764348Y-12586960D01*
X9764348Y-12586960D02*
X9754824Y-12567912D01*
X9754824Y-12567912D02*
X9754824Y-12396484D01*
X9888158Y-12596484D02*
X9869110Y-12586960D01*
X9869110Y-12586960D02*
X9859586Y-12567912D01*
X9859586Y-12567912D02*
X9859586Y-12396484D01*
X10116729Y-12596484D02*
X10116729Y-12396484D01*
X10116729Y-12396484D02*
X10183396Y-12539341D01*
X10183396Y-12539341D02*
X10250063Y-12396484D01*
X10250063Y-12396484D02*
X10250063Y-12596484D01*
X10431015Y-12596484D02*
X10431015Y-12491722D01*
X10431015Y-12491722D02*
X10421491Y-12472674D01*
X10421491Y-12472674D02*
X10402444Y-12463150D01*
X10402444Y-12463150D02*
X10364348Y-12463150D01*
X10364348Y-12463150D02*
X10345301Y-12472674D01*
X10431015Y-12586960D02*
X10411967Y-12596484D01*
X10411967Y-12596484D02*
X10364348Y-12596484D01*
X10364348Y-12596484D02*
X10345301Y-12586960D01*
X10345301Y-12586960D02*
X10335777Y-12567912D01*
X10335777Y-12567912D02*
X10335777Y-12548865D01*
X10335777Y-12548865D02*
X10345301Y-12529817D01*
X10345301Y-12529817D02*
X10364348Y-12520293D01*
X10364348Y-12520293D02*
X10411967Y-12520293D01*
X10411967Y-12520293D02*
X10431015Y-12510769D01*
X10526253Y-12463150D02*
X10526253Y-12663150D01*
X10526253Y-12472674D02*
X10545301Y-12463150D01*
X10545301Y-12463150D02*
X10583396Y-12463150D01*
X10583396Y-12463150D02*
X10602444Y-12472674D01*
X10602444Y-12472674D02*
X10611967Y-12482198D01*
X10611967Y-12482198D02*
X10621491Y-12501246D01*
X10621491Y-12501246D02*
X10621491Y-12558388D01*
X10621491Y-12558388D02*
X10611967Y-12577436D01*
X10611967Y-12577436D02*
X10602444Y-12586960D01*
X10602444Y-12586960D02*
X10583396Y-12596484D01*
X10583396Y-12596484D02*
X10545301Y-12596484D01*
X10545301Y-12596484D02*
X10526253Y-12586960D01*
X10707205Y-12577436D02*
X10716729Y-12586960D01*
X10716729Y-12586960D02*
X10707205Y-12596484D01*
X10707205Y-12596484D02*
X10697682Y-12586960D01*
X10697682Y-12586960D02*
X10707205Y-12577436D01*
X10707205Y-12577436D02*
X10707205Y-12596484D01*
X10707205Y-12472674D02*
X10716729Y-12482198D01*
X10716729Y-12482198D02*
X10707205Y-12491722D01*
X10707205Y-12491722D02*
X10697682Y-12482198D01*
X10697682Y-12482198D02*
X10707205Y-12472674D01*
X10707205Y-12472674D02*
X10707205Y-12491722D01*
D12*
X8955000Y-12865000D02*
X9075000Y-12985000D01*
X9075000Y-12865000D02*
X8955000Y-12985000D01*
D11*
X9440539Y-13016484D02*
X9326253Y-13016484D01*
X9383396Y-13016484D02*
X9383396Y-12816484D01*
X9383396Y-12816484D02*
X9364348Y-12845055D01*
X9364348Y-12845055D02*
X9345301Y-12864103D01*
X9345301Y-12864103D02*
X9326253Y-12873627D01*
X9526253Y-12997436D02*
X9535777Y-13006960D01*
X9535777Y-13006960D02*
X9526253Y-13016484D01*
X9526253Y-13016484D02*
X9516729Y-13006960D01*
X9516729Y-13006960D02*
X9526253Y-12997436D01*
X9526253Y-12997436D02*
X9526253Y-13016484D01*
X9611967Y-12835531D02*
X9621491Y-12826008D01*
X9621491Y-12826008D02*
X9640539Y-12816484D01*
X9640539Y-12816484D02*
X9688158Y-12816484D01*
X9688158Y-12816484D02*
X9707205Y-12826008D01*
X9707205Y-12826008D02*
X9716729Y-12835531D01*
X9716729Y-12835531D02*
X9726253Y-12854579D01*
X9726253Y-12854579D02*
X9726253Y-12873627D01*
X9726253Y-12873627D02*
X9716729Y-12902198D01*
X9716729Y-12902198D02*
X9602444Y-13016484D01*
X9602444Y-13016484D02*
X9726253Y-13016484D01*
X9850063Y-12816484D02*
X9869110Y-12816484D01*
X9869110Y-12816484D02*
X9888158Y-12826008D01*
X9888158Y-12826008D02*
X9897682Y-12835531D01*
X9897682Y-12835531D02*
X9907205Y-12854579D01*
X9907205Y-12854579D02*
X9916729Y-12892674D01*
X9916729Y-12892674D02*
X9916729Y-12940293D01*
X9916729Y-12940293D02*
X9907205Y-12978388D01*
X9907205Y-12978388D02*
X9897682Y-12997436D01*
X9897682Y-12997436D02*
X9888158Y-13006960D01*
X9888158Y-13006960D02*
X9869110Y-13016484D01*
X9869110Y-13016484D02*
X9850063Y-13016484D01*
X9850063Y-13016484D02*
X9831015Y-13006960D01*
X9831015Y-13006960D02*
X9821491Y-12997436D01*
X9821491Y-12997436D02*
X9811967Y-12978388D01*
X9811967Y-12978388D02*
X9802444Y-12940293D01*
X9802444Y-12940293D02*
X9802444Y-12892674D01*
X9802444Y-12892674D02*
X9811967Y-12854579D01*
X9811967Y-12854579D02*
X9821491Y-12835531D01*
X9821491Y-12835531D02*
X9831015Y-12826008D01*
X9831015Y-12826008D02*
X9850063Y-12816484D01*
X10040539Y-12816484D02*
X10059586Y-12816484D01*
X10059586Y-12816484D02*
X10078634Y-12826008D01*
X10078634Y-12826008D02*
X10088158Y-12835531D01*
X10088158Y-12835531D02*
X10097682Y-12854579D01*
X10097682Y-12854579D02*
X10107205Y-12892674D01*
X10107205Y-12892674D02*
X10107205Y-12940293D01*
X10107205Y-12940293D02*
X10097682Y-12978388D01*
X10097682Y-12978388D02*
X10088158Y-12997436D01*
X10088158Y-12997436D02*
X10078634Y-13006960D01*
X10078634Y-13006960D02*
X10059586Y-13016484D01*
X10059586Y-13016484D02*
X10040539Y-13016484D01*
X10040539Y-13016484D02*
X10021491Y-13006960D01*
X10021491Y-13006960D02*
X10011967Y-12997436D01*
X10011967Y-12997436D02*
X10002444Y-12978388D01*
X10002444Y-12978388D02*
X9992920Y-12940293D01*
X9992920Y-12940293D02*
X9992920Y-12892674D01*
X9992920Y-12892674D02*
X10002444Y-12854579D01*
X10002444Y-12854579D02*
X10011967Y-12835531D01*
X10011967Y-12835531D02*
X10021491Y-12826008D01*
X10021491Y-12826008D02*
X10040539Y-12816484D01*
X10192920Y-13016484D02*
X10192920Y-12883150D01*
X10192920Y-12902198D02*
X10202444Y-12892674D01*
X10202444Y-12892674D02*
X10221491Y-12883150D01*
X10221491Y-12883150D02*
X10250063Y-12883150D01*
X10250063Y-12883150D02*
X10269110Y-12892674D01*
X10269110Y-12892674D02*
X10278634Y-12911722D01*
X10278634Y-12911722D02*
X10278634Y-13016484D01*
X10278634Y-12911722D02*
X10288158Y-12892674D01*
X10288158Y-12892674D02*
X10307205Y-12883150D01*
X10307205Y-12883150D02*
X10335777Y-12883150D01*
X10335777Y-12883150D02*
X10354825Y-12892674D01*
X10354825Y-12892674D02*
X10364348Y-12911722D01*
X10364348Y-12911722D02*
X10364348Y-13016484D01*
X10459586Y-13016484D02*
X10459586Y-12883150D01*
X10459586Y-12902198D02*
X10469110Y-12892674D01*
X10469110Y-12892674D02*
X10488158Y-12883150D01*
X10488158Y-12883150D02*
X10516729Y-12883150D01*
X10516729Y-12883150D02*
X10535777Y-12892674D01*
X10535777Y-12892674D02*
X10545301Y-12911722D01*
X10545301Y-12911722D02*
X10545301Y-13016484D01*
X10545301Y-12911722D02*
X10554825Y-12892674D01*
X10554825Y-12892674D02*
X10573872Y-12883150D01*
X10573872Y-12883150D02*
X10602444Y-12883150D01*
X10602444Y-12883150D02*
X10621491Y-12892674D01*
X10621491Y-12892674D02*
X10631015Y-12911722D01*
X10631015Y-12911722D02*
X10631015Y-13016484D01*
X11021491Y-12806960D02*
X10850063Y-13064103D01*
X11278634Y-12816484D02*
X11297682Y-12816484D01*
X11297682Y-12816484D02*
X11316729Y-12826008D01*
X11316729Y-12826008D02*
X11326253Y-12835531D01*
X11326253Y-12835531D02*
X11335777Y-12854579D01*
X11335777Y-12854579D02*
X11345301Y-12892674D01*
X11345301Y-12892674D02*
X11345301Y-12940293D01*
X11345301Y-12940293D02*
X11335777Y-12978388D01*
X11335777Y-12978388D02*
X11326253Y-12997436D01*
X11326253Y-12997436D02*
X11316729Y-13006960D01*
X11316729Y-13006960D02*
X11297682Y-13016484D01*
X11297682Y-13016484D02*
X11278634Y-13016484D01*
X11278634Y-13016484D02*
X11259586Y-13006960D01*
X11259586Y-13006960D02*
X11250063Y-12997436D01*
X11250063Y-12997436D02*
X11240539Y-12978388D01*
X11240539Y-12978388D02*
X11231015Y-12940293D01*
X11231015Y-12940293D02*
X11231015Y-12892674D01*
X11231015Y-12892674D02*
X11240539Y-12854579D01*
X11240539Y-12854579D02*
X11250063Y-12835531D01*
X11250063Y-12835531D02*
X11259586Y-12826008D01*
X11259586Y-12826008D02*
X11278634Y-12816484D01*
X11431015Y-12997436D02*
X11440539Y-13006960D01*
X11440539Y-13006960D02*
X11431015Y-13016484D01*
X11431015Y-13016484D02*
X11421491Y-13006960D01*
X11421491Y-13006960D02*
X11431015Y-12997436D01*
X11431015Y-12997436D02*
X11431015Y-13016484D01*
X11564348Y-12816484D02*
X11583396Y-12816484D01*
X11583396Y-12816484D02*
X11602444Y-12826008D01*
X11602444Y-12826008D02*
X11611967Y-12835531D01*
X11611967Y-12835531D02*
X11621491Y-12854579D01*
X11621491Y-12854579D02*
X11631015Y-12892674D01*
X11631015Y-12892674D02*
X11631015Y-12940293D01*
X11631015Y-12940293D02*
X11621491Y-12978388D01*
X11621491Y-12978388D02*
X11611967Y-12997436D01*
X11611967Y-12997436D02*
X11602444Y-13006960D01*
X11602444Y-13006960D02*
X11583396Y-13016484D01*
X11583396Y-13016484D02*
X11564348Y-13016484D01*
X11564348Y-13016484D02*
X11545301Y-13006960D01*
X11545301Y-13006960D02*
X11535777Y-12997436D01*
X11535777Y-12997436D02*
X11526253Y-12978388D01*
X11526253Y-12978388D02*
X11516729Y-12940293D01*
X11516729Y-12940293D02*
X11516729Y-12892674D01*
X11516729Y-12892674D02*
X11526253Y-12854579D01*
X11526253Y-12854579D02*
X11535777Y-12835531D01*
X11535777Y-12835531D02*
X11545301Y-12826008D01*
X11545301Y-12826008D02*
X11564348Y-12816484D01*
X11802444Y-12883150D02*
X11802444Y-13016484D01*
X11754825Y-12806960D02*
X11707206Y-12949817D01*
X11707206Y-12949817D02*
X11831015Y-12949817D01*
X11888158Y-12816484D02*
X12021491Y-12816484D01*
X12021491Y-12816484D02*
X11935777Y-13016484D01*
X12088158Y-12835531D02*
X12097682Y-12826008D01*
X12097682Y-12826008D02*
X12116729Y-12816484D01*
X12116729Y-12816484D02*
X12164348Y-12816484D01*
X12164348Y-12816484D02*
X12183396Y-12826008D01*
X12183396Y-12826008D02*
X12192920Y-12835531D01*
X12192920Y-12835531D02*
X12202444Y-12854579D01*
X12202444Y-12854579D02*
X12202444Y-12873627D01*
X12202444Y-12873627D02*
X12192920Y-12902198D01*
X12192920Y-12902198D02*
X12078634Y-13016484D01*
X12078634Y-13016484D02*
X12202444Y-13016484D01*
X12278634Y-12816484D02*
X12278634Y-12854579D01*
X12354825Y-12816484D02*
X12354825Y-12854579D01*
X12650063Y-13092674D02*
X12640539Y-13083150D01*
X12640539Y-13083150D02*
X12621491Y-13054579D01*
X12621491Y-13054579D02*
X12611968Y-13035531D01*
X12611968Y-13035531D02*
X12602444Y-13006960D01*
X12602444Y-13006960D02*
X12592920Y-12959341D01*
X12592920Y-12959341D02*
X12592920Y-12921246D01*
X12592920Y-12921246D02*
X12602444Y-12873627D01*
X12602444Y-12873627D02*
X12611968Y-12845055D01*
X12611968Y-12845055D02*
X12621491Y-12826008D01*
X12621491Y-12826008D02*
X12640539Y-12797436D01*
X12640539Y-12797436D02*
X12650063Y-12787912D01*
X12811968Y-12883150D02*
X12811968Y-13016484D01*
X12764348Y-12806960D02*
X12716729Y-12949817D01*
X12716729Y-12949817D02*
X12840539Y-12949817D01*
X13069110Y-13016484D02*
X13069110Y-12816484D01*
X13154825Y-13016484D02*
X13154825Y-12911722D01*
X13154825Y-12911722D02*
X13145301Y-12892674D01*
X13145301Y-12892674D02*
X13126253Y-12883150D01*
X13126253Y-12883150D02*
X13097682Y-12883150D01*
X13097682Y-12883150D02*
X13078634Y-12892674D01*
X13078634Y-12892674D02*
X13069110Y-12902198D01*
X13278634Y-13016484D02*
X13259587Y-13006960D01*
X13259587Y-13006960D02*
X13250063Y-12997436D01*
X13250063Y-12997436D02*
X13240539Y-12978388D01*
X13240539Y-12978388D02*
X13240539Y-12921246D01*
X13240539Y-12921246D02*
X13250063Y-12902198D01*
X13250063Y-12902198D02*
X13259587Y-12892674D01*
X13259587Y-12892674D02*
X13278634Y-12883150D01*
X13278634Y-12883150D02*
X13307206Y-12883150D01*
X13307206Y-12883150D02*
X13326253Y-12892674D01*
X13326253Y-12892674D02*
X13335777Y-12902198D01*
X13335777Y-12902198D02*
X13345301Y-12921246D01*
X13345301Y-12921246D02*
X13345301Y-12978388D01*
X13345301Y-12978388D02*
X13335777Y-12997436D01*
X13335777Y-12997436D02*
X13326253Y-13006960D01*
X13326253Y-13006960D02*
X13307206Y-13016484D01*
X13307206Y-13016484D02*
X13278634Y-13016484D01*
X13459587Y-13016484D02*
X13440539Y-13006960D01*
X13440539Y-13006960D02*
X13431015Y-12987912D01*
X13431015Y-12987912D02*
X13431015Y-12816484D01*
X13611968Y-13006960D02*
X13592920Y-13016484D01*
X13592920Y-13016484D02*
X13554825Y-13016484D01*
X13554825Y-13016484D02*
X13535777Y-13006960D01*
X13535777Y-13006960D02*
X13526253Y-12987912D01*
X13526253Y-12987912D02*
X13526253Y-12911722D01*
X13526253Y-12911722D02*
X13535777Y-12892674D01*
X13535777Y-12892674D02*
X13554825Y-12883150D01*
X13554825Y-12883150D02*
X13592920Y-12883150D01*
X13592920Y-12883150D02*
X13611968Y-12892674D01*
X13611968Y-12892674D02*
X13621491Y-12911722D01*
X13621491Y-12911722D02*
X13621491Y-12930769D01*
X13621491Y-12930769D02*
X13526253Y-12949817D01*
X13697682Y-13006960D02*
X13716730Y-13016484D01*
X13716730Y-13016484D02*
X13754825Y-13016484D01*
X13754825Y-13016484D02*
X13773872Y-13006960D01*
X13773872Y-13006960D02*
X13783396Y-12987912D01*
X13783396Y-12987912D02*
X13783396Y-12978388D01*
X13783396Y-12978388D02*
X13773872Y-12959341D01*
X13773872Y-12959341D02*
X13754825Y-12949817D01*
X13754825Y-12949817D02*
X13726253Y-12949817D01*
X13726253Y-12949817D02*
X13707206Y-12940293D01*
X13707206Y-12940293D02*
X13697682Y-12921246D01*
X13697682Y-12921246D02*
X13697682Y-12911722D01*
X13697682Y-12911722D02*
X13707206Y-12892674D01*
X13707206Y-12892674D02*
X13726253Y-12883150D01*
X13726253Y-12883150D02*
X13754825Y-12883150D01*
X13754825Y-12883150D02*
X13773872Y-12892674D01*
X13850063Y-13092674D02*
X13859587Y-13083150D01*
X13859587Y-13083150D02*
X13878634Y-13054579D01*
X13878634Y-13054579D02*
X13888158Y-13035531D01*
X13888158Y-13035531D02*
X13897682Y-13006960D01*
X13897682Y-13006960D02*
X13907206Y-12959341D01*
X13907206Y-12959341D02*
X13907206Y-12921246D01*
X13907206Y-12921246D02*
X13897682Y-12873627D01*
X13897682Y-12873627D02*
X13888158Y-12845055D01*
X13888158Y-12845055D02*
X13878634Y-12826008D01*
X13878634Y-12826008D02*
X13859587Y-12797436D01*
X13859587Y-12797436D02*
X13850063Y-12787912D01*
X14211968Y-13092674D02*
X14202444Y-13083150D01*
X14202444Y-13083150D02*
X14183396Y-13054579D01*
X14183396Y-13054579D02*
X14173872Y-13035531D01*
X14173872Y-13035531D02*
X14164349Y-13006960D01*
X14164349Y-13006960D02*
X14154825Y-12959341D01*
X14154825Y-12959341D02*
X14154825Y-12921246D01*
X14154825Y-12921246D02*
X14164349Y-12873627D01*
X14164349Y-12873627D02*
X14173872Y-12845055D01*
X14173872Y-12845055D02*
X14183396Y-12826008D01*
X14183396Y-12826008D02*
X14202444Y-12797436D01*
X14202444Y-12797436D02*
X14211968Y-12787912D01*
X14288158Y-12883150D02*
X14288158Y-13016484D01*
X14288158Y-12902198D02*
X14297682Y-12892674D01*
X14297682Y-12892674D02*
X14316730Y-12883150D01*
X14316730Y-12883150D02*
X14345301Y-12883150D01*
X14345301Y-12883150D02*
X14364349Y-12892674D01*
X14364349Y-12892674D02*
X14373872Y-12911722D01*
X14373872Y-12911722D02*
X14373872Y-13016484D01*
X14497682Y-13016484D02*
X14478634Y-13006960D01*
X14478634Y-13006960D02*
X14469111Y-12997436D01*
X14469111Y-12997436D02*
X14459587Y-12978388D01*
X14459587Y-12978388D02*
X14459587Y-12921246D01*
X14459587Y-12921246D02*
X14469111Y-12902198D01*
X14469111Y-12902198D02*
X14478634Y-12892674D01*
X14478634Y-12892674D02*
X14497682Y-12883150D01*
X14497682Y-12883150D02*
X14526253Y-12883150D01*
X14526253Y-12883150D02*
X14545301Y-12892674D01*
X14545301Y-12892674D02*
X14554825Y-12902198D01*
X14554825Y-12902198D02*
X14564349Y-12921246D01*
X14564349Y-12921246D02*
X14564349Y-12978388D01*
X14564349Y-12978388D02*
X14554825Y-12997436D01*
X14554825Y-12997436D02*
X14545301Y-13006960D01*
X14545301Y-13006960D02*
X14526253Y-13016484D01*
X14526253Y-13016484D02*
X14497682Y-13016484D01*
X14621492Y-12883150D02*
X14697682Y-12883150D01*
X14650063Y-12816484D02*
X14650063Y-12987912D01*
X14650063Y-12987912D02*
X14659587Y-13006960D01*
X14659587Y-13006960D02*
X14678634Y-13016484D01*
X14678634Y-13016484D02*
X14697682Y-13016484D01*
X14916730Y-12883150D02*
X14916730Y-13083150D01*
X14916730Y-12892674D02*
X14935777Y-12883150D01*
X14935777Y-12883150D02*
X14973873Y-12883150D01*
X14973873Y-12883150D02*
X14992920Y-12892674D01*
X14992920Y-12892674D02*
X15002444Y-12902198D01*
X15002444Y-12902198D02*
X15011968Y-12921246D01*
X15011968Y-12921246D02*
X15011968Y-12978388D01*
X15011968Y-12978388D02*
X15002444Y-12997436D01*
X15002444Y-12997436D02*
X14992920Y-13006960D01*
X14992920Y-13006960D02*
X14973873Y-13016484D01*
X14973873Y-13016484D02*
X14935777Y-13016484D01*
X14935777Y-13016484D02*
X14916730Y-13006960D01*
X15126253Y-13016484D02*
X15107206Y-13006960D01*
X15107206Y-13006960D02*
X15097682Y-12987912D01*
X15097682Y-12987912D02*
X15097682Y-12816484D01*
X15288158Y-13016484D02*
X15288158Y-12911722D01*
X15288158Y-12911722D02*
X15278634Y-12892674D01*
X15278634Y-12892674D02*
X15259587Y-12883150D01*
X15259587Y-12883150D02*
X15221492Y-12883150D01*
X15221492Y-12883150D02*
X15202444Y-12892674D01*
X15288158Y-13006960D02*
X15269111Y-13016484D01*
X15269111Y-13016484D02*
X15221492Y-13016484D01*
X15221492Y-13016484D02*
X15202444Y-13006960D01*
X15202444Y-13006960D02*
X15192920Y-12987912D01*
X15192920Y-12987912D02*
X15192920Y-12968865D01*
X15192920Y-12968865D02*
X15202444Y-12949817D01*
X15202444Y-12949817D02*
X15221492Y-12940293D01*
X15221492Y-12940293D02*
X15269111Y-12940293D01*
X15269111Y-12940293D02*
X15288158Y-12930769D01*
X15354825Y-12883150D02*
X15431015Y-12883150D01*
X15383396Y-12816484D02*
X15383396Y-12987912D01*
X15383396Y-12987912D02*
X15392920Y-13006960D01*
X15392920Y-13006960D02*
X15411968Y-13016484D01*
X15411968Y-13016484D02*
X15431015Y-13016484D01*
X15573873Y-13006960D02*
X15554825Y-13016484D01*
X15554825Y-13016484D02*
X15516730Y-13016484D01*
X15516730Y-13016484D02*
X15497682Y-13006960D01*
X15497682Y-13006960D02*
X15488158Y-12987912D01*
X15488158Y-12987912D02*
X15488158Y-12911722D01*
X15488158Y-12911722D02*
X15497682Y-12892674D01*
X15497682Y-12892674D02*
X15516730Y-12883150D01*
X15516730Y-12883150D02*
X15554825Y-12883150D01*
X15554825Y-12883150D02*
X15573873Y-12892674D01*
X15573873Y-12892674D02*
X15583396Y-12911722D01*
X15583396Y-12911722D02*
X15583396Y-12930769D01*
X15583396Y-12930769D02*
X15488158Y-12949817D01*
X15754825Y-13016484D02*
X15754825Y-12816484D01*
X15754825Y-13006960D02*
X15735777Y-13016484D01*
X15735777Y-13016484D02*
X15697682Y-13016484D01*
X15697682Y-13016484D02*
X15678634Y-13006960D01*
X15678634Y-13006960D02*
X15669111Y-12997436D01*
X15669111Y-12997436D02*
X15659587Y-12978388D01*
X15659587Y-12978388D02*
X15659587Y-12921246D01*
X15659587Y-12921246D02*
X15669111Y-12902198D01*
X15669111Y-12902198D02*
X15678634Y-12892674D01*
X15678634Y-12892674D02*
X15697682Y-12883150D01*
X15697682Y-12883150D02*
X15735777Y-12883150D01*
X15735777Y-12883150D02*
X15754825Y-12892674D01*
X15831015Y-13092674D02*
X15840539Y-13083150D01*
X15840539Y-13083150D02*
X15859587Y-13054579D01*
X15859587Y-13054579D02*
X15869111Y-13035531D01*
X15869111Y-13035531D02*
X15878634Y-13006960D01*
X15878634Y-13006960D02*
X15888158Y-12959341D01*
X15888158Y-12959341D02*
X15888158Y-12921246D01*
X15888158Y-12921246D02*
X15878634Y-12873627D01*
X15878634Y-12873627D02*
X15869111Y-12845055D01*
X15869111Y-12845055D02*
X15859587Y-12826008D01*
X15859587Y-12826008D02*
X15840539Y-12797436D01*
X15840539Y-12797436D02*
X15831015Y-12787912D01*
X9075000Y-13189000D02*
G75*
G02*
X8875000Y-13189000I-100000J0D01*
G01*
X8875000Y-13189000D02*
G75*
G02*
X9075000Y-13189000I100000J0D01*
G01*
X9316729Y-13080484D02*
X9440539Y-13080484D01*
X9440539Y-13080484D02*
X9373872Y-13156674D01*
X9373872Y-13156674D02*
X9402444Y-13156674D01*
X9402444Y-13156674D02*
X9421491Y-13166198D01*
X9421491Y-13166198D02*
X9431015Y-13175722D01*
X9431015Y-13175722D02*
X9440539Y-13194769D01*
X9440539Y-13194769D02*
X9440539Y-13242388D01*
X9440539Y-13242388D02*
X9431015Y-13261436D01*
X9431015Y-13261436D02*
X9421491Y-13270960D01*
X9421491Y-13270960D02*
X9402444Y-13280484D01*
X9402444Y-13280484D02*
X9345301Y-13280484D01*
X9345301Y-13280484D02*
X9326253Y-13270960D01*
X9326253Y-13270960D02*
X9316729Y-13261436D01*
X9526253Y-13261436D02*
X9535777Y-13270960D01*
X9535777Y-13270960D02*
X9526253Y-13280484D01*
X9526253Y-13280484D02*
X9516729Y-13270960D01*
X9516729Y-13270960D02*
X9526253Y-13261436D01*
X9526253Y-13261436D02*
X9526253Y-13280484D01*
X9716729Y-13080484D02*
X9621491Y-13080484D01*
X9621491Y-13080484D02*
X9611967Y-13175722D01*
X9611967Y-13175722D02*
X9621491Y-13166198D01*
X9621491Y-13166198D02*
X9640539Y-13156674D01*
X9640539Y-13156674D02*
X9688158Y-13156674D01*
X9688158Y-13156674D02*
X9707205Y-13166198D01*
X9707205Y-13166198D02*
X9716729Y-13175722D01*
X9716729Y-13175722D02*
X9726253Y-13194769D01*
X9726253Y-13194769D02*
X9726253Y-13242388D01*
X9726253Y-13242388D02*
X9716729Y-13261436D01*
X9716729Y-13261436D02*
X9707205Y-13270960D01*
X9707205Y-13270960D02*
X9688158Y-13280484D01*
X9688158Y-13280484D02*
X9640539Y-13280484D01*
X9640539Y-13280484D02*
X9621491Y-13270960D01*
X9621491Y-13270960D02*
X9611967Y-13261436D01*
X9850063Y-13080484D02*
X9869110Y-13080484D01*
X9869110Y-13080484D02*
X9888158Y-13090008D01*
X9888158Y-13090008D02*
X9897682Y-13099531D01*
X9897682Y-13099531D02*
X9907205Y-13118579D01*
X9907205Y-13118579D02*
X9916729Y-13156674D01*
X9916729Y-13156674D02*
X9916729Y-13204293D01*
X9916729Y-13204293D02*
X9907205Y-13242388D01*
X9907205Y-13242388D02*
X9897682Y-13261436D01*
X9897682Y-13261436D02*
X9888158Y-13270960D01*
X9888158Y-13270960D02*
X9869110Y-13280484D01*
X9869110Y-13280484D02*
X9850063Y-13280484D01*
X9850063Y-13280484D02*
X9831015Y-13270960D01*
X9831015Y-13270960D02*
X9821491Y-13261436D01*
X9821491Y-13261436D02*
X9811967Y-13242388D01*
X9811967Y-13242388D02*
X9802444Y-13204293D01*
X9802444Y-13204293D02*
X9802444Y-13156674D01*
X9802444Y-13156674D02*
X9811967Y-13118579D01*
X9811967Y-13118579D02*
X9821491Y-13099531D01*
X9821491Y-13099531D02*
X9831015Y-13090008D01*
X9831015Y-13090008D02*
X9850063Y-13080484D01*
X10040539Y-13080484D02*
X10059586Y-13080484D01*
X10059586Y-13080484D02*
X10078634Y-13090008D01*
X10078634Y-13090008D02*
X10088158Y-13099531D01*
X10088158Y-13099531D02*
X10097682Y-13118579D01*
X10097682Y-13118579D02*
X10107205Y-13156674D01*
X10107205Y-13156674D02*
X10107205Y-13204293D01*
X10107205Y-13204293D02*
X10097682Y-13242388D01*
X10097682Y-13242388D02*
X10088158Y-13261436D01*
X10088158Y-13261436D02*
X10078634Y-13270960D01*
X10078634Y-13270960D02*
X10059586Y-13280484D01*
X10059586Y-13280484D02*
X10040539Y-13280484D01*
X10040539Y-13280484D02*
X10021491Y-13270960D01*
X10021491Y-13270960D02*
X10011967Y-13261436D01*
X10011967Y-13261436D02*
X10002444Y-13242388D01*
X10002444Y-13242388D02*
X9992920Y-13204293D01*
X9992920Y-13204293D02*
X9992920Y-13156674D01*
X9992920Y-13156674D02*
X10002444Y-13118579D01*
X10002444Y-13118579D02*
X10011967Y-13099531D01*
X10011967Y-13099531D02*
X10021491Y-13090008D01*
X10021491Y-13090008D02*
X10040539Y-13080484D01*
X10192920Y-13280484D02*
X10192920Y-13147150D01*
X10192920Y-13166198D02*
X10202444Y-13156674D01*
X10202444Y-13156674D02*
X10221491Y-13147150D01*
X10221491Y-13147150D02*
X10250063Y-13147150D01*
X10250063Y-13147150D02*
X10269110Y-13156674D01*
X10269110Y-13156674D02*
X10278634Y-13175722D01*
X10278634Y-13175722D02*
X10278634Y-13280484D01*
X10278634Y-13175722D02*
X10288158Y-13156674D01*
X10288158Y-13156674D02*
X10307205Y-13147150D01*
X10307205Y-13147150D02*
X10335777Y-13147150D01*
X10335777Y-13147150D02*
X10354825Y-13156674D01*
X10354825Y-13156674D02*
X10364348Y-13175722D01*
X10364348Y-13175722D02*
X10364348Y-13280484D01*
X10459586Y-13280484D02*
X10459586Y-13147150D01*
X10459586Y-13166198D02*
X10469110Y-13156674D01*
X10469110Y-13156674D02*
X10488158Y-13147150D01*
X10488158Y-13147150D02*
X10516729Y-13147150D01*
X10516729Y-13147150D02*
X10535777Y-13156674D01*
X10535777Y-13156674D02*
X10545301Y-13175722D01*
X10545301Y-13175722D02*
X10545301Y-13280484D01*
X10545301Y-13175722D02*
X10554825Y-13156674D01*
X10554825Y-13156674D02*
X10573872Y-13147150D01*
X10573872Y-13147150D02*
X10602444Y-13147150D01*
X10602444Y-13147150D02*
X10621491Y-13156674D01*
X10621491Y-13156674D02*
X10631015Y-13175722D01*
X10631015Y-13175722D02*
X10631015Y-13280484D01*
X11021491Y-13070960D02*
X10850063Y-13328103D01*
X11278634Y-13080484D02*
X11297682Y-13080484D01*
X11297682Y-13080484D02*
X11316729Y-13090008D01*
X11316729Y-13090008D02*
X11326253Y-13099531D01*
X11326253Y-13099531D02*
X11335777Y-13118579D01*
X11335777Y-13118579D02*
X11345301Y-13156674D01*
X11345301Y-13156674D02*
X11345301Y-13204293D01*
X11345301Y-13204293D02*
X11335777Y-13242388D01*
X11335777Y-13242388D02*
X11326253Y-13261436D01*
X11326253Y-13261436D02*
X11316729Y-13270960D01*
X11316729Y-13270960D02*
X11297682Y-13280484D01*
X11297682Y-13280484D02*
X11278634Y-13280484D01*
X11278634Y-13280484D02*
X11259586Y-13270960D01*
X11259586Y-13270960D02*
X11250063Y-13261436D01*
X11250063Y-13261436D02*
X11240539Y-13242388D01*
X11240539Y-13242388D02*
X11231015Y-13204293D01*
X11231015Y-13204293D02*
X11231015Y-13156674D01*
X11231015Y-13156674D02*
X11240539Y-13118579D01*
X11240539Y-13118579D02*
X11250063Y-13099531D01*
X11250063Y-13099531D02*
X11259586Y-13090008D01*
X11259586Y-13090008D02*
X11278634Y-13080484D01*
X11431015Y-13261436D02*
X11440539Y-13270960D01*
X11440539Y-13270960D02*
X11431015Y-13280484D01*
X11431015Y-13280484D02*
X11421491Y-13270960D01*
X11421491Y-13270960D02*
X11431015Y-13261436D01*
X11431015Y-13261436D02*
X11431015Y-13280484D01*
X11631015Y-13280484D02*
X11516729Y-13280484D01*
X11573872Y-13280484D02*
X11573872Y-13080484D01*
X11573872Y-13080484D02*
X11554825Y-13109055D01*
X11554825Y-13109055D02*
X11535777Y-13128103D01*
X11535777Y-13128103D02*
X11516729Y-13137627D01*
X11697682Y-13080484D02*
X11821491Y-13080484D01*
X11821491Y-13080484D02*
X11754825Y-13156674D01*
X11754825Y-13156674D02*
X11783396Y-13156674D01*
X11783396Y-13156674D02*
X11802444Y-13166198D01*
X11802444Y-13166198D02*
X11811967Y-13175722D01*
X11811967Y-13175722D02*
X11821491Y-13194769D01*
X11821491Y-13194769D02*
X11821491Y-13242388D01*
X11821491Y-13242388D02*
X11811967Y-13261436D01*
X11811967Y-13261436D02*
X11802444Y-13270960D01*
X11802444Y-13270960D02*
X11783396Y-13280484D01*
X11783396Y-13280484D02*
X11726253Y-13280484D01*
X11726253Y-13280484D02*
X11707206Y-13270960D01*
X11707206Y-13270960D02*
X11697682Y-13261436D01*
X11888158Y-13080484D02*
X12021491Y-13080484D01*
X12021491Y-13080484D02*
X11935777Y-13280484D01*
X12126253Y-13166198D02*
X12107206Y-13156674D01*
X12107206Y-13156674D02*
X12097682Y-13147150D01*
X12097682Y-13147150D02*
X12088158Y-13128103D01*
X12088158Y-13128103D02*
X12088158Y-13118579D01*
X12088158Y-13118579D02*
X12097682Y-13099531D01*
X12097682Y-13099531D02*
X12107206Y-13090008D01*
X12107206Y-13090008D02*
X12126253Y-13080484D01*
X12126253Y-13080484D02*
X12164348Y-13080484D01*
X12164348Y-13080484D02*
X12183396Y-13090008D01*
X12183396Y-13090008D02*
X12192920Y-13099531D01*
X12192920Y-13099531D02*
X12202444Y-13118579D01*
X12202444Y-13118579D02*
X12202444Y-13128103D01*
X12202444Y-13128103D02*
X12192920Y-13147150D01*
X12192920Y-13147150D02*
X12183396Y-13156674D01*
X12183396Y-13156674D02*
X12164348Y-13166198D01*
X12164348Y-13166198D02*
X12126253Y-13166198D01*
X12126253Y-13166198D02*
X12107206Y-13175722D01*
X12107206Y-13175722D02*
X12097682Y-13185246D01*
X12097682Y-13185246D02*
X12088158Y-13204293D01*
X12088158Y-13204293D02*
X12088158Y-13242388D01*
X12088158Y-13242388D02*
X12097682Y-13261436D01*
X12097682Y-13261436D02*
X12107206Y-13270960D01*
X12107206Y-13270960D02*
X12126253Y-13280484D01*
X12126253Y-13280484D02*
X12164348Y-13280484D01*
X12164348Y-13280484D02*
X12183396Y-13270960D01*
X12183396Y-13270960D02*
X12192920Y-13261436D01*
X12192920Y-13261436D02*
X12202444Y-13242388D01*
X12202444Y-13242388D02*
X12202444Y-13204293D01*
X12202444Y-13204293D02*
X12192920Y-13185246D01*
X12192920Y-13185246D02*
X12183396Y-13175722D01*
X12183396Y-13175722D02*
X12164348Y-13166198D01*
X12278634Y-13080484D02*
X12278634Y-13118579D01*
X12354825Y-13080484D02*
X12354825Y-13118579D01*
X12650063Y-13356674D02*
X12640539Y-13347150D01*
X12640539Y-13347150D02*
X12621491Y-13318579D01*
X12621491Y-13318579D02*
X12611968Y-13299531D01*
X12611968Y-13299531D02*
X12602444Y-13270960D01*
X12602444Y-13270960D02*
X12592920Y-13223341D01*
X12592920Y-13223341D02*
X12592920Y-13185246D01*
X12592920Y-13185246D02*
X12602444Y-13137627D01*
X12602444Y-13137627D02*
X12611968Y-13109055D01*
X12611968Y-13109055D02*
X12621491Y-13090008D01*
X12621491Y-13090008D02*
X12640539Y-13061436D01*
X12640539Y-13061436D02*
X12650063Y-13051912D01*
X12831015Y-13280484D02*
X12716729Y-13280484D01*
X12773872Y-13280484D02*
X12773872Y-13080484D01*
X12773872Y-13080484D02*
X12754825Y-13109055D01*
X12754825Y-13109055D02*
X12735777Y-13128103D01*
X12735777Y-13128103D02*
X12716729Y-13137627D01*
X13069110Y-13280484D02*
X13069110Y-13080484D01*
X13154825Y-13280484D02*
X13154825Y-13175722D01*
X13154825Y-13175722D02*
X13145301Y-13156674D01*
X13145301Y-13156674D02*
X13126253Y-13147150D01*
X13126253Y-13147150D02*
X13097682Y-13147150D01*
X13097682Y-13147150D02*
X13078634Y-13156674D01*
X13078634Y-13156674D02*
X13069110Y-13166198D01*
X13278634Y-13280484D02*
X13259587Y-13270960D01*
X13259587Y-13270960D02*
X13250063Y-13261436D01*
X13250063Y-13261436D02*
X13240539Y-13242388D01*
X13240539Y-13242388D02*
X13240539Y-13185246D01*
X13240539Y-13185246D02*
X13250063Y-13166198D01*
X13250063Y-13166198D02*
X13259587Y-13156674D01*
X13259587Y-13156674D02*
X13278634Y-13147150D01*
X13278634Y-13147150D02*
X13307206Y-13147150D01*
X13307206Y-13147150D02*
X13326253Y-13156674D01*
X13326253Y-13156674D02*
X13335777Y-13166198D01*
X13335777Y-13166198D02*
X13345301Y-13185246D01*
X13345301Y-13185246D02*
X13345301Y-13242388D01*
X13345301Y-13242388D02*
X13335777Y-13261436D01*
X13335777Y-13261436D02*
X13326253Y-13270960D01*
X13326253Y-13270960D02*
X13307206Y-13280484D01*
X13307206Y-13280484D02*
X13278634Y-13280484D01*
X13459587Y-13280484D02*
X13440539Y-13270960D01*
X13440539Y-13270960D02*
X13431015Y-13251912D01*
X13431015Y-13251912D02*
X13431015Y-13080484D01*
X13611968Y-13270960D02*
X13592920Y-13280484D01*
X13592920Y-13280484D02*
X13554825Y-13280484D01*
X13554825Y-13280484D02*
X13535777Y-13270960D01*
X13535777Y-13270960D02*
X13526253Y-13251912D01*
X13526253Y-13251912D02*
X13526253Y-13175722D01*
X13526253Y-13175722D02*
X13535777Y-13156674D01*
X13535777Y-13156674D02*
X13554825Y-13147150D01*
X13554825Y-13147150D02*
X13592920Y-13147150D01*
X13592920Y-13147150D02*
X13611968Y-13156674D01*
X13611968Y-13156674D02*
X13621491Y-13175722D01*
X13621491Y-13175722D02*
X13621491Y-13194769D01*
X13621491Y-13194769D02*
X13526253Y-13213817D01*
X13688158Y-13356674D02*
X13697682Y-13347150D01*
X13697682Y-13347150D02*
X13716730Y-13318579D01*
X13716730Y-13318579D02*
X13726253Y-13299531D01*
X13726253Y-13299531D02*
X13735777Y-13270960D01*
X13735777Y-13270960D02*
X13745301Y-13223341D01*
X13745301Y-13223341D02*
X13745301Y-13185246D01*
X13745301Y-13185246D02*
X13735777Y-13137627D01*
X13735777Y-13137627D02*
X13726253Y-13109055D01*
X13726253Y-13109055D02*
X13716730Y-13090008D01*
X13716730Y-13090008D02*
X13697682Y-13061436D01*
X13697682Y-13061436D02*
X13688158Y-13051912D01*
X14050063Y-13356674D02*
X14040539Y-13347150D01*
X14040539Y-13347150D02*
X14021491Y-13318579D01*
X14021491Y-13318579D02*
X14011968Y-13299531D01*
X14011968Y-13299531D02*
X14002444Y-13270960D01*
X14002444Y-13270960D02*
X13992920Y-13223341D01*
X13992920Y-13223341D02*
X13992920Y-13185246D01*
X13992920Y-13185246D02*
X14002444Y-13137627D01*
X14002444Y-13137627D02*
X14011968Y-13109055D01*
X14011968Y-13109055D02*
X14021491Y-13090008D01*
X14021491Y-13090008D02*
X14040539Y-13061436D01*
X14040539Y-13061436D02*
X14050063Y-13051912D01*
X14126253Y-13147150D02*
X14126253Y-13280484D01*
X14126253Y-13166198D02*
X14135777Y-13156674D01*
X14135777Y-13156674D02*
X14154825Y-13147150D01*
X14154825Y-13147150D02*
X14183396Y-13147150D01*
X14183396Y-13147150D02*
X14202444Y-13156674D01*
X14202444Y-13156674D02*
X14211968Y-13175722D01*
X14211968Y-13175722D02*
X14211968Y-13280484D01*
X14335777Y-13280484D02*
X14316730Y-13270960D01*
X14316730Y-13270960D02*
X14307206Y-13261436D01*
X14307206Y-13261436D02*
X14297682Y-13242388D01*
X14297682Y-13242388D02*
X14297682Y-13185246D01*
X14297682Y-13185246D02*
X14307206Y-13166198D01*
X14307206Y-13166198D02*
X14316730Y-13156674D01*
X14316730Y-13156674D02*
X14335777Y-13147150D01*
X14335777Y-13147150D02*
X14364349Y-13147150D01*
X14364349Y-13147150D02*
X14383396Y-13156674D01*
X14383396Y-13156674D02*
X14392920Y-13166198D01*
X14392920Y-13166198D02*
X14402444Y-13185246D01*
X14402444Y-13185246D02*
X14402444Y-13242388D01*
X14402444Y-13242388D02*
X14392920Y-13261436D01*
X14392920Y-13261436D02*
X14383396Y-13270960D01*
X14383396Y-13270960D02*
X14364349Y-13280484D01*
X14364349Y-13280484D02*
X14335777Y-13280484D01*
X14459587Y-13147150D02*
X14535777Y-13147150D01*
X14488158Y-13080484D02*
X14488158Y-13251912D01*
X14488158Y-13251912D02*
X14497682Y-13270960D01*
X14497682Y-13270960D02*
X14516730Y-13280484D01*
X14516730Y-13280484D02*
X14535777Y-13280484D01*
X14754825Y-13147150D02*
X14754825Y-13347150D01*
X14754825Y-13156674D02*
X14773872Y-13147150D01*
X14773872Y-13147150D02*
X14811968Y-13147150D01*
X14811968Y-13147150D02*
X14831015Y-13156674D01*
X14831015Y-13156674D02*
X14840539Y-13166198D01*
X14840539Y-13166198D02*
X14850063Y-13185246D01*
X14850063Y-13185246D02*
X14850063Y-13242388D01*
X14850063Y-13242388D02*
X14840539Y-13261436D01*
X14840539Y-13261436D02*
X14831015Y-13270960D01*
X14831015Y-13270960D02*
X14811968Y-13280484D01*
X14811968Y-13280484D02*
X14773872Y-13280484D01*
X14773872Y-13280484D02*
X14754825Y-13270960D01*
X14964349Y-13280484D02*
X14945301Y-13270960D01*
X14945301Y-13270960D02*
X14935777Y-13251912D01*
X14935777Y-13251912D02*
X14935777Y-13080484D01*
X15126253Y-13280484D02*
X15126253Y-13175722D01*
X15126253Y-13175722D02*
X15116730Y-13156674D01*
X15116730Y-13156674D02*
X15097682Y-13147150D01*
X15097682Y-13147150D02*
X15059587Y-13147150D01*
X15059587Y-13147150D02*
X15040539Y-13156674D01*
X15126253Y-13270960D02*
X15107206Y-13280484D01*
X15107206Y-13280484D02*
X15059587Y-13280484D01*
X15059587Y-13280484D02*
X15040539Y-13270960D01*
X15040539Y-13270960D02*
X15031015Y-13251912D01*
X15031015Y-13251912D02*
X15031015Y-13232865D01*
X15031015Y-13232865D02*
X15040539Y-13213817D01*
X15040539Y-13213817D02*
X15059587Y-13204293D01*
X15059587Y-13204293D02*
X15107206Y-13204293D01*
X15107206Y-13204293D02*
X15126253Y-13194769D01*
X15192920Y-13147150D02*
X15269111Y-13147150D01*
X15221492Y-13080484D02*
X15221492Y-13251912D01*
X15221492Y-13251912D02*
X15231015Y-13270960D01*
X15231015Y-13270960D02*
X15250063Y-13280484D01*
X15250063Y-13280484D02*
X15269111Y-13280484D01*
X15411968Y-13270960D02*
X15392920Y-13280484D01*
X15392920Y-13280484D02*
X15354825Y-13280484D01*
X15354825Y-13280484D02*
X15335777Y-13270960D01*
X15335777Y-13270960D02*
X15326253Y-13251912D01*
X15326253Y-13251912D02*
X15326253Y-13175722D01*
X15326253Y-13175722D02*
X15335777Y-13156674D01*
X15335777Y-13156674D02*
X15354825Y-13147150D01*
X15354825Y-13147150D02*
X15392920Y-13147150D01*
X15392920Y-13147150D02*
X15411968Y-13156674D01*
X15411968Y-13156674D02*
X15421492Y-13175722D01*
X15421492Y-13175722D02*
X15421492Y-13194769D01*
X15421492Y-13194769D02*
X15326253Y-13213817D01*
X15592920Y-13280484D02*
X15592920Y-13080484D01*
X15592920Y-13270960D02*
X15573873Y-13280484D01*
X15573873Y-13280484D02*
X15535777Y-13280484D01*
X15535777Y-13280484D02*
X15516730Y-13270960D01*
X15516730Y-13270960D02*
X15507206Y-13261436D01*
X15507206Y-13261436D02*
X15497682Y-13242388D01*
X15497682Y-13242388D02*
X15497682Y-13185246D01*
X15497682Y-13185246D02*
X15507206Y-13166198D01*
X15507206Y-13166198D02*
X15516730Y-13156674D01*
X15516730Y-13156674D02*
X15535777Y-13147150D01*
X15535777Y-13147150D02*
X15573873Y-13147150D01*
X15573873Y-13147150D02*
X15592920Y-13156674D01*
X15669111Y-13356674D02*
X15678634Y-13347150D01*
X15678634Y-13347150D02*
X15697682Y-13318579D01*
X15697682Y-13318579D02*
X15707206Y-13299531D01*
X15707206Y-13299531D02*
X15716730Y-13270960D01*
X15716730Y-13270960D02*
X15726253Y-13223341D01*
X15726253Y-13223341D02*
X15726253Y-13185246D01*
X15726253Y-13185246D02*
X15716730Y-13137627D01*
X15716730Y-13137627D02*
X15707206Y-13109055D01*
X15707206Y-13109055D02*
X15697682Y-13090008D01*
X15697682Y-13090008D02*
X15678634Y-13061436D01*
X15678634Y-13061436D02*
X15669111Y-13051912D01*
M02*
